# xmcd
#
# Track frame offsets:
#	150
#	13423
#	26904
#	42332
#	55856
#	69809
#	84801
#	98946
#	112405
#	125799
#	139163
#	153871
#	167310
#	181671
#	196612
#	210925
#	224856
#	239156
#	253285
#	266906
#	281370
#	295716
#	309503
#
# Disc length: 4306 seconds
#
# Revision: 0
# Processed by: cddbd v1.5.2PL0 Copyright (c) Steve Scherf et al.
# Submitted via: EasyCDDAExtractor 9.1.3.1
#
DISCID=5710d017
DTITLE=Tom Darby and Jimmie Tarlton - Darby and Tarlton - Disc A (Atlanta 1927-29)
DYEAR=2005
DGENRE=Country
TTITLE0=Down In Florida On A Hog
TTITLE1=Birmingham Town
TTITLE2=Birmingham Jail
TTITLE3=Columbus Stockade Blues
TTITLE4=Gamblin' Jim
TTITLE5=Lonesome In The Pines
TTITLE6=After The Ball
TTITLE7=I Can't Tell You Why I Love You
TTITLE8=Irish Police
TTITLE9=The Hobo Tramp
TTITLE10=Alto Waltz
TTITLE11=Mexican Rag
TTITLE12=Birmingham Jail, No.2
TTITLE13=The Rainbow Division
TTITLE14=Country Girl Valley
TTITLE15=Lonesome Railroad
TTITLE16=If You Ever Learn To Love Me
TTITLE17=If I Had Listened To My Mother
TTITLE18=Traveling Yodel Blues
TTITLE19=Heavy Hearted blues
TTITLE20=The New York Hobo
TTITLE21=All Bound Down In Texas
TTITLE22=Touring Yodel Blues
EXTD=
EXTT0=
EXTT1=
EXTT2=
EXTT3=
EXTT4=
EXTT5=
EXTT6=
EXTT7=
EXTT8=
EXTT9=
EXTT10=
EXTT11=
EXTT12=
EXTT13=
EXTT14=
EXTT15=
EXTT16=
EXTT17=
EXTT18=
EXTT19=
EXTT20=
EXTT21=
EXTT22=
PLAYORDER=
